HIERARCHY
ROOT Hips
{
	OFFSET 0.00000 0.00000 0.00000
	CHANNELS 6 Xposition Yposition Zposition Zrotation Yrotation Xrotation 
	JOINT LHipJoint
	{
		OFFSET 0 0 0
		CHANNELS 3 Zrotation Yrotation Xrotation
		JOINT LeftUpLeg
		{
			OFFSET 1.62964 -1.40469 0.78906
			CHANNELS 3 Zrotation Yrotation Xrotation
			JOINT LeftLeg
			{
				OFFSET 2.29640 -6.30932 0.00000
				CHANNELS 3 Zrotation Yrotation Xrotation
				JOINT LeftFoot
				{
					OFFSET 2.29451 -6.30412 0.00000
					CHANNELS 3 Zrotation Yrotation Xrotation
					JOINT LeftToeBase
					{
						OFFSET 0.03611 -0.09921 1.56387
						CHANNELS 3 Zrotation Yrotation Xrotation
						End Site
						{
							OFFSET 0.00000 -0.00000 0.80291
						}
					}
				}
			}
		}
	}
	JOINT RHipJoint
	{
		OFFSET 0 0 0
		CHANNELS 3 Zrotation Yrotation Xrotation
		JOINT RightUpLeg
		{
			OFFSET -1.73712 -1.40469 0.78906
			CHANNELS 3 Zrotation Yrotation Xrotation
			JOINT RightLeg
			{
				OFFSET -2.28137 -6.26801 0.00000
				CHANNELS 3 Zrotation Yrotation Xrotation
				JOINT RightFoot
				{
					OFFSET -2.28681 -6.28298 0.00000
					CHANNELS 3 Zrotation Yrotation Xrotation
					JOINT RightToeBase
					{
						OFFSET -0.15927 -0.43759 1.61103
						CHANNELS 3 Zrotation Yrotation Xrotation
						End Site
						{
							OFFSET -0.00000 -0.00000 0.84630
						}
					}
				}
			}
		}
	}
	JOINT LowerBack
	{
		OFFSET 0 0 0
		CHANNELS 3 Zrotation Yrotation Xrotation
		JOINT Spine
		{
			OFFSET -0.04227 2.04338 -0.00225
			CHANNELS 3 Zrotation Yrotation Xrotation
			JOINT Spine1
			{
				OFFSET -0.02148 2.04482 -0.04273
				CHANNELS 3 Zrotation Yrotation Xrotation
				JOINT Neck
				{
					OFFSET 0 0 0
					CHANNELS 3 Zrotation Yrotation Xrotation
					JOINT Neck1
					{
						OFFSET 0.09180 1.44629 0.19359
						CHANNELS 3 Zrotation Yrotation Xrotation
						JOINT Head
						{
							OFFSET 0.00887 1.40645 0.14750
							CHANNELS 3 Zrotation Yrotation Xrotation
							End Site
							{
								OFFSET -0.00669 1.50671 0.03707
							}
						}
					}
				}
				JOINT LeftShoulder
				{
					OFFSET 0 0 0
					CHANNELS 3 Zrotation Yrotation Xrotation
					JOINT LeftArm
					{
						OFFSET 2.17674 1.86763 -0.06520
						CHANNELS 3 Zrotation Yrotation Xrotation
						JOINT LeftForeArm
						{
							OFFSET 4.65776 -0.00000 0.00000
							CHANNELS 3 Zrotation Yrotation Xrotation
							JOINT LeftHand
							{
								OFFSET 3.55539 -0.00000 0.00000
								CHANNELS 3 Zrotation Yrotation Xrotation
								JOINT LeftFingerBase
								{
									OFFSET 0 0 0
									CHANNELS 3 Zrotation Yrotation Xrotation
									JOINT LeftHandIndex1
									{
										OFFSET 0.70726 -0.00000 0.00000
										CHANNELS 3 Zrotation Yrotation Xrotation
										End Site
										{
											OFFSET 0.57022 -0.00000 0.00000
										}
									}
								}
								JOINT LThumb
								{
									OFFSET 0 0 0
									CHANNELS 3 Zrotation Yrotation Xrotation
									End Site
									{
										OFFSET 0.57892 -0.00000 0.57892
									}
								}
							}
						}
					}
				}
				JOINT RightShoulder
				{
					OFFSET 0 0 0
					CHANNELS 3 Zrotation Yrotation Xrotation
					JOINT RightArm
					{
						OFFSET -2.80694 1.55459 -0.32496
						CHANNELS 3 Zrotation Yrotation Xrotation
						JOINT RightForeArm
						{
							OFFSET -4.71925 -0.00000 -0.00000
							CHANNELS 3 Zrotation Yrotation Xrotation
							JOINT RightHand
							{
								OFFSET -3.56990 -0.00000 0.00000
								CHANNELS 3 Zrotation Yrotation Xrotation
								JOINT RightFingerBase
								{
									OFFSET 0 0 0
									CHANNELS 3 Zrotation Yrotation Xrotation
									JOINT RightHandIndex1
									{
										OFFSET -0.50776 -0.00000 0.00000
										CHANNELS 3 Zrotation Yrotation Xrotation
										End Site
										{
											OFFSET -0.40937 -0.00000 0.00000
										}
									}
								}
								JOINT RThumb
								{
									OFFSET 0 0 0
									CHANNELS 3 Zrotation Yrotation Xrotation
									End Site
									{
										OFFSET -0.41562 -0.00000 0.41562
									}
								}
							}
						}
					}
				}
			}
		}
	}
}
MOTION
Frames: 13
Frame Time: .0083333
7.6324 16.2627 30.9177 0 0 0 0 0 0 -21 0 0 0 0 0 0 0 0 0 0 0 0 0 0 21 0 0 0 0 0 0 0 0 0 0 0 0 0 0 0 0 0 0 0 0 0 0 -16 0 0 21 0 0 11 0 0 0 -8 0 0 0 0 0 0 0 0 0 0 0 0 0 0 0 0 0 0 0 0 8 0 0 0 0 0 0 0 0 0 0 0 0 0 0 0 0 0
7.6324 16.2627 30.9177 177.5380 -1.6248 -155.5830 0.0000 0.0000 0.0000 -19.2947 -18.1883 -19.8022 0.6971 5.3370 14.8722 0.5495 1.3213 -14.5434 6.1014 -14.5259 -45.3875 0.0000 0.0000 0.0000 18.8616 13.5444 -17.2941 -0.2016 -2.8910 7.9754 -1.4109 -0.9291 -22.8079 -1.7520 8.3293 -23.7188 -6.6525 -1.8144 -29.0975 -0.1989 -0.6810 -0.6711 3.0836 -0.9819 14.6995 -0.8273 -2.3720 -8.5642 3.8764 -3.4878 7.0527 1.2270 -1.5944 3.9416 0.0000 0.0000 0.0000 -86.3823 3.8453 10.4798 11.8204 -19.5347 -2.0418 -0.0000 -0.0000 7.5828 24.4385 -11.7211 -5.2744 -7.1250 0.0000 -0.0000 -1.9068 17.1462 1.2606 0.0000 0.0000 0.0000 91.4460 -6.0287 3.4751 -16.2141 25.8101 -3.7387 0.0000 0.0000 3.1035 -10.3127 -56.7846 8.6557 7.1250 -0.0000 -0.0000 82.0936 -75.7359 -67.2697
7.6330 16.2587 30.9164 177.3680 -1.5744 -155.6610 0.0000 0.0000 0.0000 -19.5656 -18.2063 -19.7078 0.7058 5.3694 14.9653 0.5523 1.3415 -14.5874 6.1538 -14.5758 -45.5960 0.0000 0.0000 0.0000 18.6902 13.3329 -17.3204 -0.2070 -2.9292 8.0817 -1.4243 -0.7738 -22.8563 -1.7794 8.3906 -23.9069 -6.8450 -1.8524 -29.0243 -0.2467 -0.6625 -0.6542 3.1442 -0.9844 14.6819 -1.0231 -2.3398 -8.4849 4.1792 -3.4510 6.9902 1.3669 -1.5717 3.9162 -0.0000 -0.0000 0.0000 -86.3495 3.8046 10.3206 11.8200 -19.5341 -2.0417 -0.0000 -0.0000 7.6771 24.2040 -11.9632 -5.3231 -7.1250 0.0000 -0.0000 -2.0832 16.9071 1.3883 -0.0000 -0.0000 0.0000 91.4654 -6.0686 3.6838 -16.3584 26.0042 -3.8018 0.0000 0.0000 2.9799 -10.9356 -56.0902 9.1099 7.1250 -0.0000 -0.0000 79.2767 -75.9181 -64.6999
7.6319 16.2579 30.9159 177.2410 -1.5305 -155.6580 0.0000 0.0000 0.0000 -19.7414 -18.3281 -19.7158 0.7199 5.4218 15.1157 0.5575 1.3981 -14.6787 6.1245 -14.5480 -45.4796 0.0000 0.0000 0.0000 18.5276 13.2941 -17.4580 -0.2189 -3.0117 8.3112 -1.4406 -0.7215 -22.9659 -1.7765 8.3841 -23.8869 -6.9825 -1.8791 -29.0559 -0.2878 -0.6440 -0.6404 3.1801 -0.9860 14.7092 -1.2210 -2.2999 -8.2447 4.5088 -3.3964 6.7176 1.5175 -1.5435 3.7848 0.0000 0.0000 0.0000 -86.3027 3.7598 10.2250 11.8519 -19.5822 -2.0524 -0.0000 -0.0000 7.5808 23.8348 -11.9065 -5.2079 -7.1250 0.0000 -0.0000 -2.3373 17.0060 1.5528 0.0000 0.0000 0.0000 91.4955 -6.0744 3.9406 -16.4962 26.1888 -3.8623 0.0000 0.0000 2.7893 -11.8283 -55.4132 9.7824 7.1250 -0.0000 -0.0000 76.4267 -76.1757 -62.2215
7.6293 16.2585 30.9143 177.2960 -1.5789 -155.6550 0.0000 0.0000 0.0000 -19.6542 -18.3879 -19.8294 0.7402 5.4960 15.3289 0.5642 1.3457 -14.7387 6.0499 -14.4766 -45.1818 0.0000 0.0000 0.0000 18.5721 13.4313 -17.5608 -0.2333 -3.1087 8.5814 -1.4546 -0.8543 -23.1256 -1.8008 8.4382 -24.0531 -6.9163 -1.8644 -29.0958 -0.2676 -0.6443 -0.6292 3.1657 -0.9827 14.7416 -1.4431 -2.2577 -8.1288 4.7986 -3.3397 6.6192 1.6591 -1.5133 3.7394 -0.0000 0.0000 0.0000 -86.2816 3.7498 10.3357 11.8973 -19.6504 -2.0676 -0.0000 -0.0000 7.4069 23.9006 -11.6030 -5.0934 -7.1250 0.0000 -0.0000 -2.2761 17.3283 1.4960 -0.0000 0.0000 0.0000 91.5111 -6.0609 4.1399 -16.6277 26.3644 -3.9206 0.0000 0.0000 2.4911 -12.6981 -54.7450 10.4257 7.1250 -0.0000 -0.0000 73.5306 -76.4027 -59.7024
7.6253 16.2550 30.9078 177.3820 -1.6325 -155.7490 0.0000 0.0000 0.0000 -19.5887 -18.3597 -19.7873 0.7502 5.5323 15.4333 0.5638 1.3376 -14.7299 6.0745 -14.5001 -45.2798 0.0000 0.0000 0.0000 18.6694 13.5013 -17.4961 -0.2410 -3.1593 8.7227 -1.4626 -0.9246 -23.2145 -1.8256 8.4929 -24.2216 -6.8006 -1.8508 -29.1053 -0.2307 -0.6600 -0.5883 3.1380 -0.9822 14.7972 -1.5566 -2.2564 -8.1007 4.8790 -3.3373 6.6994 1.7076 -1.5118 3.7673 0.0000 0.0000 0.0000 -86.2884 3.7668 10.4633 11.9413 -19.7165 -2.0824 -0.0000 -0.0000 7.3382 23.9726 -11.4249 -5.0336 -7.1250 0.0000 -0.0000 -2.2168 17.5144 1.4480 0.0000 0.0000 0.0000 91.4865 -6.0605 4.3397 -16.7523 26.5300 -3.9761 0.0000 0.0000 2.2785 -13.4794 -54.0105 10.9760 7.1250 -0.0000 -0.0000 70.3041 -76.5572 -56.8312
7.6258 16.2521 30.9038 177.3960 -1.6240 -155.8390 0.0000 0.0000 0.0000 -19.6159 -18.2662 -19.6853 0.7468 5.5202 15.3983 0.5564 1.3665 -14.6509 6.1222 -14.5457 -45.4700 0.0000 0.0000 0.0000 18.7101 13.7870 -17.3885 -0.2562 -3.2564 8.9934 -1.4863 -1.0848 -23.4607 -1.7995 8.4353 -24.0442 -6.8058 -1.8420 -29.1031 -0.2322 -0.6384 -0.5449 3.1483 -0.9727 14.8450 -1.6209 -2.2423 -7.6644 4.9872 -3.3075 6.3587 1.7575 -1.5046 3.5656 -0.0000 0.0000 0.0000 -86.2189 3.7833 10.6720 12.0037 -19.8102 -2.1036 -0.0000 -0.0000 7.1986 23.8955 -11.5758 -5.0804 -7.1250 0.0000 -0.0000 -2.2783 17.3584 1.4960 -0.0000 0.0000 0.0000 91.5143 -6.0452 4.5165 -16.8655 26.6801 -4.0267 0.0000 0.0000 2.1718 -14.8025 -52.6026 11.8564 7.1250 -0.0000 -0.0000 64.0363 -76.6929 -51.2060
7.6271 16.2510 30.9029 177.4120 -1.6259 -155.8880 0.0000 0.0000 0.0000 -19.6034 -18.2708 -19.6328 0.7497 5.5306 15.4284 0.5543 1.4112 -14.6448 6.1128 -14.5368 -45.4328 0.0000 0.0000 0.0000 18.7371 13.9757 -17.3206 -0.2627 -3.2974 9.1077 -1.4939 -1.2291 -23.5757 -1.7821 8.3967 -23.9256 -6.8024 -1.8325 -29.0805 -0.2413 -0.6232 -0.5254 3.1432 -0.9648 14.8558 -1.5500 -2.3121 -7.7662 4.8720 -3.4068 6.5429 1.7006 -1.5529 3.6486 -0.0000 -0.0000 0.0000 -86.1303 3.7927 10.8661 12.0617 -19.8971 -2.1233 -0.0000 -0.0000 6.9190 23.8157 -11.9968 -5.2419 -7.1250 0.0000 -0.0000 -2.3553 16.9102 1.5697 -0.0000 -0.0000 0.0000 91.5501 -6.0419 4.7448 -16.9936 26.8493 -4.0845 0.0000 0.0000 1.9595 -15.3951 -52.6985 12.3545 7.1250 -0.0000 -0.0000 64.1819 -76.9559 -51.6140
7.6283 16.2508 30.9019 177.3950 -1.6221 -155.9650 0.0000 0.0000 0.0000 -19.6433 -18.3262 -19.5310 0.7542 5.5468 15.4749 0.5574 1.4785 -14.7159 6.0539 -14.4804 -45.1978 0.0000 0.0000 0.0000 18.7376 13.9984 -17.2005 -0.2601 -3.2814 9.0632 -1.4892 -1.3106 -23.5709 -1.7940 8.4231 -24.0067 -6.8504 -1.8426 -28.9989 -0.2417 -0.6230 -0.5174 3.1705 -0.9660 14.8273 -1.5543 -2.2585 -7.6694 4.9217 -3.3360 6.4558 1.7222 -1.5187 3.5981 -0.0000 -0.0000 0.0000 -86.0974 3.8002 10.8804 12.0973 -19.9504 -2.1354 -0.0000 -0.0000 6.7700 24.2285 -10.9401 -4.8815 -7.1250 0.0000 -0.0000 -2.0136 18.0164 1.2929 -0.0000 -0.0000 0.0000 91.5813 -6.0174 4.9338 -17.1178 27.0129 -4.1407 0.0000 0.0000 1.7683 -15.8300 -53.4916 12.8384 7.1250 -0.0000 -0.0000 67.4264 -77.3486 -55.0051
7.6295 16.2489 30.8993 177.3390 -1.6059 -155.9900 0.0000 0.0000 0.0000 -19.7297 -18.2889 -19.5221 0.7576 5.5591 15.5102 0.5587 1.4439 -14.7159 6.1954 -14.6150 -45.7609 0.0000 0.0000 0.0000 18.6859 13.9602 -17.1858 -0.2617 -3.2914 9.0910 -1.4903 -1.2863 -23.5698 -1.7665 8.3618 -23.8186 -6.9638 -1.8696 -28.9890 -0.2401 -0.6228 -0.5214 3.2338 -0.9739 14.8175 -1.3511 -2.3722 -7.7958 4.5490 -3.4851 6.7098 1.5518 -1.5960 3.7011 -0.0000 0.0000 0.0000 -86.0777 3.8070 10.8718 12.1130 -19.9740 -2.1407 -0.0000 -0.0000 6.7440 24.2351 -10.5665 -4.7189 -7.1250 0.0000 -0.0000 -1.9911 18.4224 1.2606 -0.0000 0.0000 0.0000 91.5960 -6.0070 5.1492 -17.2439 27.1782 -4.1981 0.0000 0.0000 1.5771 -15.9162 -54.1121 13.0088 7.1250 -0.0000 -0.0000 70.1629 -77.5213 -57.7406
7.6292 16.2468 30.8973 177.3520 -1.6564 -155.9590 0.0000 0.0000 0.0000 -19.7026 -18.3028 -19.6223 0.7705 5.6049 15.6424 0.5606 1.3860 -14.7126 6.1295 -14.5527 -45.4992 0.0000 0.0000 0.0000 18.7142 13.9254 -17.2604 -0.2666 -3.3215 9.1752 -1.4953 -1.2709 -23.6025 -1.7551 8.3362 -23.7400 -6.9879 -1.9029 -29.0130 -0.2039 -0.6660 -0.5442 3.2686 -0.9964 14.8071 -1.2449 -2.4027 -7.8879 4.2881 -3.5234 6.9669 1.4430 -1.6182 3.8007 -0.0000 -0.0000 0.0000 -86.0757 3.8211 10.8773 12.1413 -20.0162 -2.1504 -0.0000 -0.0000 6.7062 24.1652 -10.4351 -4.6461 -7.1250 0.0000 -0.0000 -2.0345 18.5717 1.2814 -0.0000 -0.0000 0.0000 91.5391 -6.0474 5.4874 -17.3925 27.3723 -4.2662 0.0000 0.0000 1.2919 -15.8969 -54.3387 13.0285 7.1250 -0.0000 -0.0000 71.1887 -77.5569 -58.7440
7.6285 16.2463 30.8972 177.4280 -1.7431 -155.9590 0.0000 0.0000 0.0000 -19.5827 -18.4104 -19.6876 0.7840 5.6527 15.7799 0.5631 1.3977 -14.7495 6.0886 -14.5137 -45.3363 0.0000 0.0000 0.0000 18.8177 13.9322 -17.2999 -0.2718 -3.3538 9.2653 -1.5019 -1.3236 -23.6745 -1.7745 8.3796 -23.8731 -6.9214 -1.9176 -29.0177 -0.1554 -0.7120 -0.5427 3.2678 -1.0132 14.8175 -1.1894 -2.3908 -8.0340 4.1322 -3.5079 7.1965 1.3812 -1.6111 3.9044 -0.0000 0.0000 0.0000 -86.1135 3.7624 10.7493 12.1566 -20.0391 -2.1557 -0.0000 -0.0000 6.7495 24.1124 -10.4415 -4.6374 -7.1250 0.0000 -0.0000 -2.0721 18.5696 1.3052 -0.0000 0.0000 0.0000 91.4714 -6.0932 5.8636 -17.5630 27.5939 -4.3449 0.0000 0.0000 0.8354 -15.6652 -55.1902 12.9663 7.1250 -0.0000 -0.0000 75.0901 -77.5932 -62.4962
7.6279 16.2460 30.8950 177.4570 -1.7438 -156.0600 0.0000 0.0000 0.0000 -19.5723 -18.4579 -19.5861 0.7914 5.6787 15.8549 0.5663 1.4024 -14.7918 5.9865 -14.4152 -44.9274 0.0000 0.0000 0.0000 18.8656 13.8400 -17.2607 -0.2776 -3.3889 9.3635 -1.5175 -1.1672 -23.7330 -1.7165 8.2488 -23.4723 -6.9042 -1.9180 -29.0027 -0.1322 -0.7105 -0.4842 3.2857 -1.0113 14.8800 -1.1783 -2.4064 -8.0911 4.0490 -3.5240 7.2691 1.3500 -1.6204 3.9393 -0.0000 -0.0000 0.0000 -86.1451 3.6531 10.6363 12.1483 -20.0267 -2.1528 -0.0000 -0.0000 6.7432 24.1859 -10.5535 -4.7025 -7.1250 0.0000 -0.0000 -2.0253 18.4410 1.2814 -0.0000 -0.0000 0.0000 91.4199 -6.1129 6.1897 -17.6873 27.7549 -4.4026 0.0000 0.0000 0.3703 -15.1674 -56.4115 12.7252 7.1250 -0.0000 -0.0000 80.6605 -77.4870 -67.7959
